<svg xmlns="http://www.w3.org/2000/svg" width="22" height="21.046" viewBox="0 0 22 21.046">
  <g id="Group_9" data-name="Group 9" transform="translate(1.152 -0.79)">
    <ellipse id="Ellipse_9" data-name="Ellipse 9" cx="11" cy="10.5" rx="11" ry="10.5" transform="translate(-1.152 0.79)" fill="#ffd93b"/>
    <path id="Path_14" data-name="Path 14" d="M75.765,65.046A10.72,10.72,0,0,1,56.7,71.775,10.72,10.72,0,0,0,71.775,56.7,10.709,10.709,0,0,1,75.765,65.046Z" transform="translate(-54.918 -53.932)" fill="#f4c534"/>
    <path id="Path_15" data-name="Path 15" d="M178.553,359.7a.823.823,0,0,1-1.068.218,4.925,4.925,0,0,0-4.615,0,.824.824,0,0,1-1.072-.193.771.771,0,0,1,.352-1.172,6.457,6.457,0,0,1,6.055,0,.748.748,0,0,1,.348,1.147Z" transform="translate(-165.05 -342.423)" fill="#3e4347"/>
    <path id="Path_16" data-name="Path 16" d="M276.5,168.225a3.329,3.329,0,1,1,1.612,3.022A3.325,3.325,0,0,1,276.5,168.225Z" transform="translate(-265.513 -157.601)" fill="#fff"/>
    <circle id="Ellipse_10" data-name="Ellipse 10" cx="1.516" cy="1.516" r="1.516" transform="translate(12.13 9.782)" fill="#3e4347"/>
    <g id="Group_8" data-name="Group 8" transform="translate(2.465 7.299)">
      <ellipse id="Ellipse_11" data-name="Ellipse 11" cx="0.272" cy="0.419" rx="0.272" ry="0.419" transform="translate(10.507 3.91) rotate(-135)" fill="#fff"/>
      <path id="Path_17" data-name="Path 17" d="M79.653,168.225a3.329,3.329,0,1,0-1.612,3.022A3.325,3.325,0,0,0,79.653,168.225Z" transform="translate(-73 -164.9)" fill="#fff"/>
    </g>
    <circle id="Ellipse_12" data-name="Ellipse 12" cx="1.516" cy="1.516" r="1.516" transform="translate(4.948 9.782)" fill="#3e4347"/>
    <ellipse id="Ellipse_13" data-name="Ellipse 13" cx="0.419" cy="0.272" rx="0.419" ry="0.272" transform="translate(7.137 11.213) rotate(-135)" fill="#fff"/>
  </g>
</svg>
