<svg xmlns="http://www.w3.org/2000/svg" width="22" height="22.04" viewBox="0 0 22 22.04">
  <g id="Group_7" data-name="Group 7" transform="translate(-0.555 -0.491)">
    <ellipse id="Ellipse_8" data-name="Ellipse 8" cx="11" cy="10.997" rx="11" ry="10.997" transform="translate(0.555 0.491)" fill="#ffd93b"/>
    <path id="Path_4" data-name="Path 4" d="M76.241,65.251a10.988,10.988,0,0,1-19.541,6.9A10.986,10.986,0,0,0,72.151,56.7,10.972,10.972,0,0,1,76.241,65.251Z" transform="translate(-53.686 -53.706)" fill="#f4c534"/>
    <path id="Path_5" data-name="Path 5" d="M178.971,356.808a4.594,4.594,0,0,0-7.179,0,.337.337,0,0,1-.594-.287,4.271,4.271,0,0,1,8.377.04A.338.338,0,0,1,178.971,356.808Z" transform="translate(-163.974 -337.867)" fill="#3e4347"/>
    <path id="Path_6" data-name="Path 6" d="M268.811,153.048c.262,3.109,2.574,5.639,5.188,5.639,2.589,0,4.5-2.53,4.238-5.639a6.809,6.809,0,0,0-1.173-3.3.68.68,0,0,0-.916-.208,5.937,5.937,0,0,1-5.837.069.666.666,0,0,0-.936.267A6.121,6.121,0,0,0,268.811,153.048Z" transform="translate(-258.277 -143.205)" fill="#f4c534"/>
    <path id="Path_7" data-name="Path 7" d="M292.414,171.726a5.419,5.419,0,0,0,3.154-.926,5.333,5.333,0,0,1,.926,2.555c.2,2.456-1.292,4.441-3.342,4.441s-3.881-1.985-4.084-4.441a4.7,4.7,0,0,1,.426-2.4A5.54,5.54,0,0,0,292.414,171.726Z" transform="translate(-277.303 -163.515)" fill="#fff"/>
    <path id="Path_8" data-name="Path 8" d="M322.727,209.363a1.913,1.913,0,1,1-1.913-1.913A1.906,1.906,0,0,1,322.727,209.363Z" transform="translate(-305.093 -198.405)" fill="#3e4347"/>
    <path id="Path_9" data-name="Path 9" d="M361.748,222.31c-.158.158-.49.084-.738-.158s-.307-.569-.148-.728.5-.1.738.144S361.916,222.147,361.748,222.31Z" transform="translate(-344.903 -211.522)" fill="#fff"/>
    <path id="Path_10" data-name="Path 10" d="M61.379,153.048c-.262,3.109-2.574,5.639-5.188,5.639-2.589,0-4.5-2.53-4.238-5.639a6.808,6.808,0,0,1,1.173-3.3.68.68,0,0,1,.916-.208,5.937,5.937,0,0,0,5.837.069.666.666,0,0,1,.936.267A6.121,6.121,0,0,1,61.379,153.048Z" transform="translate(-49.152 -143.205)" fill="#f4c534"/>
    <path id="Path_11" data-name="Path 11" d="M76.34,171.726a5.419,5.419,0,0,1-3.154-.926,5.332,5.332,0,0,0-.926,2.555c-.2,2.456,1.292,4.441,3.342,4.441s3.881-1.985,4.084-4.441a4.7,4.7,0,0,0-.426-2.4A5.54,5.54,0,0,1,76.34,171.726Z" transform="translate(-68.46 -163.515)" fill="#fff"/>
    <path id="Path_12" data-name="Path 12" d="M115.8,209.363a1.913,1.913,0,1,0,1.913-1.913A1.906,1.906,0,0,0,115.8,209.363Z" transform="translate(-110.623 -198.405)" fill="#3e4347"/>
    <path id="Path_13" data-name="Path 13" d="M129.853,222.31c.158.158.49.084.738-.158s.307-.569.149-.728-.5-.1-.738.144S129.685,222.147,129.853,222.31Z" transform="translate(-123.893 -211.522)" fill="#fff"/>
  </g>
</svg>
