<svg xmlns="http://www.w3.org/2000/svg" width="22" height="22.046" viewBox="0 0 22 22.046">
  <g id="Group_13" data-name="Group 13" transform="translate(-0.492 -0.429)">
    <circle id="Ellipse_21" data-name="Ellipse 21" cx="11" cy="11" r="11" transform="translate(0.492 0.429)" fill="#ffd93b"/>
    <path id="Path_21" data-name="Path 21" d="M76.7,65.455a11.246,11.246,0,0,1-20,7.06A11.246,11.246,0,0,0,72.515,56.7,11.235,11.235,0,0,1,76.7,65.455Z" transform="translate(-54.209 -54.229)" fill="#f4c534"/>
    <path id="Path_22" data-name="Path 22" d="M90.132,164.784c0,2.161-3.264,4.138-3.264,4.138s-3.268-1.977-3.268-4.138a1.669,1.669,0,0,1,3.268-.488,1.669,1.669,0,0,1,3.264.488Z" transform="translate(-79.927 -155.96)" fill="#e24b4b"/>
    <path id="Path_23" data-name="Path 23" d="M84.245,173.3a1.656,1.656,0,0,0-.545,1.23c0,2.161,3.264,4.138,3.264,4.138-3.418-2.886-2.741-5.285-2.724-5.368Z" transform="translate(-80.023 -165.707)" fill="#d03f3f"/>
    <path id="Path_24" data-name="Path 24" d="M198.678,181.406c-.158.132-.431.044-.606-.18s-.2-.505-.053-.619.426-.031.611.193S198.831,181.3,198.678,181.406Z" transform="translate(-189.224 -172.64)" fill="#fff"/>
    <path id="Path_25" data-name="Path 25" d="M286.232,164.784c0,2.161-3.268,4.138-3.268,4.138s-3.264-1.977-3.264-4.138a1.669,1.669,0,0,1,3.268-.488,1.669,1.669,0,0,1,3.264.488Z" transform="translate(-267.412 -155.96)" fill="#e24b4b"/>
    <path id="Path_26" data-name="Path 26" d="M280.345,173.3a1.656,1.656,0,0,0-.545,1.23c0,2.161,3.264,4.138,3.264,4.138C279.646,175.782,280.323,173.383,280.345,173.3Z" transform="translate(-267.508 -165.707)" fill="#d03f3f"/>
    <path id="Path_27" data-name="Path 27" d="M394.778,181.406c-.158.132-.431.044-.606-.18s-.2-.505-.053-.619.426-.031.611.193S394.931,181.3,394.778,181.406Z" transform="translate(-376.709 -172.64)" fill="#fff"/>
    <path id="Path_28" data-name="Path 28" d="M137.267,346.506a6.814,6.814,0,0,1-11.049.009.773.773,0,0,1,.725-1.261,27.575,27.575,0,0,0,9.608,0A.768.768,0,0,1,137.267,346.506Z" transform="translate(-120.498 -330.092)" fill="#3e4347"/>
    <path id="Path_29" data-name="Path 29" d="M192.421,385.053a6.505,6.505,0,0,0,3.15-.857,1.931,1.931,0,0,0-2.75-1.393c-1.3.694-2.759-.206-3.321,1.507a6.409,6.409,0,0,0,2.921.747Z" transform="translate(-181.175 -365.81)" fill="#e24b4b"/>
  </g>
</svg>
