<svg xmlns="http://www.w3.org/2000/svg" width="22" height="22" viewBox="0 0 22 22">
  <g id="Group_17" data-name="Group 17" transform="translate(0.123 0.122)">
    <g id="Group_14" data-name="Group 14" transform="translate(-0.123 -0.122)">
      <ellipse id="Ellipse_22" data-name="Ellipse 22" cx="11" cy="11" rx="11" ry="11" transform="translate(0)" fill="#ffd93b"/>
      <path id="Path_30" data-name="Path 30" d="M75.918,65.07A10.752,10.752,0,0,1,56.8,71.82,10.752,10.752,0,0,0,71.919,56.7,10.751,10.751,0,0,1,75.918,65.07Z" transform="translate(-53.918 -53.823)" fill="#ffd93b"/>
    </g>
    <path id="Path_31" data-name="Path 31" d="M21.877,80.657v8.022a.913.913,0,0,1-.842.967h-7.99a1.078,1.078,0,0,1-1-1.142V87.469a1.262,1.262,0,0,0-.923-1.3,1.161,1.161,0,0,0-1.282,1.239v1.1a1.078,1.078,0,0,1-1,1.142H.842a.794.794,0,0,1-.6-.282A1.029,1.029,0,0,1,0,88.689V80.657A.9.9,0,0,1,.842,79.7H21.036A.9.9,0,0,1,21.877,80.657Z" transform="translate(0 -76.624)" fill="#e9eff4"/>
    <path id="Path_32" data-name="Path 32" d="M43.431,116.022v4.286a1.118,1.118,0,0,1-1.118,1.118h-6a1.118,1.118,0,0,1-1.118-1.118v-4.29a1.118,1.118,0,0,1,1.118-1.118h6a1.118,1.118,0,0,1,1.118,1.118Z" transform="translate(-33.49 -110.244)" fill="#45cbea"/>
    <path id="Path_33" data-name="Path 33" d="M315.541,116.022v4.286a1.118,1.118,0,0,1-1.118,1.118h-6.006a1.118,1.118,0,0,1-1.118-1.118v-4.29a1.118,1.118,0,0,1,1.118-1.118h6a1.118,1.118,0,0,1,1.118,1.118Z" transform="translate(-295.369 -110.244)" fill="#e84d88"/>
    <g id="Group_15" data-name="Group 15" transform="translate(1.705 4.697)">
      <path id="Path_34" data-name="Path 34" d="M38.02,114.9,35.1,117.815v.739l3.654-3.654Zm1.365,0L35.1,119.181v1.127a1.176,1.176,0,0,0,.034.262l5.675-5.67Z" transform="translate(-35.1 -114.9)" fill="#38c0dc"/>
    </g>
    <g id="Group_16" data-name="Group 16" transform="translate(12.555 4.683)">
      <path id="Path_35" data-name="Path 35" d="M310.507,114.8l-3.207,3.207v.734l3.95-3.945Zm1.37,0-4.572,4.567v.841a1.121,1.121,0,0,0,.107.476L313.3,114.8Z" transform="translate(-307.3 -114.8)" fill="#d23f77"/>
    </g>
    <path id="Path_36" data-name="Path 36" d="M189.738,318.136a3.586,3.586,0,1,1-3.566-3.936A3.77,3.77,0,0,1,189.738,318.136Z" transform="translate(-175.239 -301.933)" fill="#3e4347"/>
    <path id="Path_37" data-name="Path 37" d="M206.051,419.48a3.4,3.4,0,0,0,2.59-1.239,2.74,2.74,0,0,0-5.141.049,3.4,3.4,0,0,0,2.556,1.19Z" transform="translate(-195.125 -399.342)" fill="#e24b4b"/>
    <path id="Path_38" data-name="Path 38" d="M272.62,426.252c-.049.165-.282.253-.534.19s-.408-.248-.36-.423.277-.243.52-.185S272.659,426.091,272.62,426.252Z" transform="translate(-260.175 -408.125)" fill="#fff" opacity="0.2"/>
  </g>
</svg>
